<?xml version="1.0" encoding="UTF-8"?>
<svg xmlns="http://www.w3.org/2000/svg" xmlns:xlink="http://www.w3.org/1999/xlink" width="16px" height="13px" viewBox="0 0 16 13" version="1.1" id="content">
    <title>􀶹</title>
    <g id="Design-Spec" stroke="none" stroke-width="1" fill="none" fill-rule="evenodd">
        <g id="Taxonomy-and-Icons-Filled---04/28/22" transform="translate(-455.000000, -606.000000)" fill="#86868B" fill-rule="nonzero">
            <g id="􀶹" transform="translate(455.787109, 606.728516)">
                <path d="M0.990234375,8.9296875 L5.20898438,8.9296875 C5.36132812,8.80859375 5.53710938,8.70214844 5.73632812,8.61035156 C5.93554687,8.51855469 6.15234375,8.44726562 6.38671875,8.39648438 L6.76171875,8.3203125 L6.76171875,8.13867188 L2.7421875,8.13867188 C2.671875,8.13867188 2.61816406,8.11914062 2.58105469,8.08007812 C2.54394531,8.04101562 2.52539062,7.98828125 2.52539062,7.921875 L2.52539062,5.09179688 C2.52539062,5.02148438 2.54394531,4.96679688 2.58105469,4.92773438 C2.61816406,4.88867188 2.671875,4.86914062 2.7421875,4.86914062 L7.08984375,4.86914062 L7.08398438,4.07226562 L2.7421875,4.07226562 C2.671875,4.07226562 2.61816406,4.05273438 2.58105469,4.01367188 C2.54394531,3.97460938 2.52539062,3.91992188 2.52539062,3.84960938 L2.52539062,1.01367188 C2.52539062,0.943359375 2.54394531,0.888671875 2.58105469,0.849609375 C2.61816406,0.810546875 2.671875,0.791015625 2.7421875,0.791015625 L8.68359375,0.791015625 C8.7890625,0.791015625 8.85742188,0.833984375 8.88867188,0.919921875 L11.2558594,0.427734375 C11.1777344,0.294921875 11.0683594,0.190429688 10.9277344,0.114257812 C10.7871094,0.0380859375 10.6230469,0 10.4355469,0 L0.990234375,0 C0.689453125,0 0.44921875,0.0888671875 0.26953125,0.266601562 C0.08984375,0.444335938 0,0.6796875 0,0.97265625 L0,7.95703125 C0,8.25390625 0.08984375,8.49023438 0.26953125,8.66601562 C0.44921875,8.84179688 0.689453125,8.9296875 0.990234375,8.9296875 Z M0.990234375,8.13867188 C0.826171875,8.13867188 0.744140625,8.05859375 0.744140625,7.8984375 L0.744140625,7.35351562 C0.744140625,7.19726562 0.8203125,7.11914062 0.97265625,7.11914062 L1.60546875,7.11914062 C1.671875,7.11914062 1.72558594,7.14160156 1.76660156,7.18652344 C1.80761719,7.23144531 1.828125,7.28710938 1.828125,7.35351562 L1.828125,7.91601562 C1.828125,8.06445312 1.75390625,8.13867188 1.60546875,8.13867188 L0.990234375,8.13867188 Z M0.97265625,6.5390625 C0.8203125,6.5390625 0.744140625,6.46289062 0.744140625,6.31054688 L0.744140625,5.75976562 C0.744140625,5.60742188 0.8203125,5.53125 0.97265625,5.53125 L1.60546875,5.53125 C1.75390625,5.53125 1.828125,5.60742188 1.828125,5.75976562 L1.828125,6.31054688 C1.828125,6.37304688 1.80761719,6.42675781 1.76660156,6.47167969 C1.72558594,6.51660156 1.671875,6.5390625 1.60546875,6.5390625 L0.97265625,6.5390625 Z M0.97265625,4.96875 C0.8203125,4.96875 0.744140625,4.89648438 0.744140625,4.75195312 L0.744140625,4.1953125 C0.744140625,4.0390625 0.8203125,3.9609375 0.97265625,3.9609375 L1.60546875,3.9609375 C1.75390625,3.9609375 1.828125,4.0390625 1.828125,4.1953125 L1.828125,4.75195312 C1.828125,4.89648438 1.75390625,4.96875 1.60546875,4.96875 L0.97265625,4.96875 Z M0.97265625,3.41015625 C0.90234375,3.41015625 0.846679688,3.38867188 0.805664062,3.34570312 C0.764648438,3.30273438 0.744140625,3.25390625 0.744140625,3.19921875 L0.744140625,2.64257812 C0.744140625,2.48242188 0.8203125,2.40234375 0.97265625,2.40234375 L1.60546875,2.40234375 C1.75390625,2.40234375 1.828125,2.48242188 1.828125,2.64257812 L1.828125,3.19921875 C1.828125,3.25390625 1.80761719,3.30273438 1.76660156,3.34570312 C1.72558594,3.38867188 1.671875,3.41015625 1.60546875,3.41015625 L0.97265625,3.41015625 Z M0.97265625,1.81054688 C0.8203125,1.81054688 0.744140625,1.73632812 0.744140625,1.58789062 L0.744140625,1.04296875 C0.744140625,0.875 0.826171875,0.791015625 0.990234375,0.791015625 L1.60546875,0.791015625 C1.75390625,0.791015625 1.828125,0.869140625 1.828125,1.02539062 L1.828125,1.58789062 C1.828125,1.73632812 1.75390625,1.81054688 1.60546875,1.81054688 L0.97265625,1.81054688 Z M6.69726562,12.1171875 C6.88867188,12.1171875 7.09765625,12.078125 7.32421875,12 C7.55078125,11.921875 7.765625,11.7988281 7.96875,11.6308594 C8.171875,11.4628906 8.33789062,11.2421875 8.46679688,10.96875 C8.59570312,10.6953125 8.66015625,10.3632812 8.66015625,9.97265625 L8.66015625,4.93945312 C8.66015625,4.80664062 8.67773438,4.71875 8.71289062,4.67578125 C8.74804688,4.6328125 8.82421875,4.59960938 8.94140625,4.57617188 L13.3183594,3.67382813 C13.4472656,3.64648438 13.5400391,3.65039062 13.5966797,3.68554688 C13.6533203,3.72070312 13.6816406,3.79882812 13.6816406,3.91992188 L13.7167969,7.2890625 C13.7167969,7.5546875 13.5878906,7.71679688 13.3300781,7.77539062 L12.5390625,7.9453125 C11.4570312,8.1796875 10.9160156,8.703125 10.9160156,9.515625 C10.9160156,9.921875 11.0634766,10.2578125 11.3583984,10.5234375 C11.6533203,10.7890625 12.0253906,10.921875 12.4746094,10.921875 C12.6699219,10.921875 12.8798828,10.8837891 13.1044922,10.8076172 C13.3291016,10.7314453 13.5419922,10.6113281 13.7431641,10.4472656 C13.9443359,10.2832031 14.1083984,10.0664062 14.2353516,9.796875 C14.3623047,9.52734375 14.4257812,9.19921875 14.4257812,8.8125 L14.4257812,1.32421875 C14.4257812,1.0703125 14.3603516,0.897460937 14.2294922,0.805664062 C14.0986328,0.713867187 13.8867188,0.69921875 13.59375,0.76171875 L8.44335938,1.83398437 C8.06445312,1.91210937 7.875,2.10546875 7.875,2.4140625 L7.91601562,8.49023438 C7.91601562,8.74804688 7.8046875,8.90039062 7.58203125,8.94726562 L6.73828125,9.1171875 C6.203125,9.22265625 5.80664062,9.41308594 5.54882812,9.68847656 C5.29101562,9.96386719 5.16210938,10.3066406 5.16210938,10.7167969 C5.16210938,11.1269531 5.3046875,11.4628906 5.58984375,11.7246094 C5.875,11.9863281 6.24414062,12.1171875 6.69726562,12.1171875 Z" id="Shape"/>
            </g>
        </g>
    </g>
</svg>
