<?xml version="1.0" encoding="UTF-8"?>
<svg width="15px" height="15px" viewBox="0 0 15 15" version="1.1" xmlns="http://www.w3.org/2000/svg" xmlns:xlink="http://www.w3.org/1999/xlink">
    <title>generative-ai</title>
    <g id="generative-ai" stroke="none" stroke-width="1" fill="none" fill-rule="evenodd">
        <path d="M2.51628684,6.59174949 C2.37908003,6.59174949 2.29359292,6.51562432 2.25982551,6.36337399 C2.20370933,6.06026214 2.15450844,5.82116662 2.11222286,5.64608741 C2.06993727,5.4710082 2.00524184,5.33717431 1.91813658,5.24458574 C1.83103133,5.15199716 1.6931681,5.08134051 1.50454689,5.03261577 C1.31592569,4.98389103 1.04719086,4.93554244 0.698342388,4.88756998 C0.539092115,4.86419137 0.459466979,4.78378398 0.459466979,4.64634781 C0.459466979,4.50868018 0.532711113,4.42766518 0.679199382,4.40330281 C1.03568063,4.34792327 1.30951416,4.29494524 1.50069998,4.24436873 C1.69188579,4.19379223 1.8313519,4.12249902 1.91909831,4.03048913 C2.00684473,3.93847923 2.07184546,3.80552783 2.11410052,3.63163491 C2.15635558,3.457742 2.20493057,3.22051271 2.25982551,2.91994705 C2.29090618,2.77134239 2.37639329,2.69704006 2.51628684,2.69704006 C2.58235616,2.69704006 2.63838075,2.71790142 2.6843606,2.75962415 C2.73034045,2.80134687 2.75919235,2.85478784 2.7709163,2.91994705 C2.82562805,3.22288529 2.87412672,3.46247269 2.91641231,3.63870926 C2.9586979,3.81494582 3.02400394,3.94935839 3.11233045,4.04194696 C3.20065695,4.13453554 3.34012306,4.20523559 3.53072879,4.25404713 C3.72133451,4.30285867 3.99496959,4.35261056 4.35163402,4.40330281 C4.50056478,4.42650782 4.57503016,4.50752282 4.57503016,4.64634781 C4.57503016,4.78262662 4.50056478,4.86303401 4.35163402,4.88756998 C3.99368728,4.93907238 3.71942631,4.98982249 3.52885112,5.03982032 C3.33827593,5.08981815 3.19913039,5.16047481 3.11141451,5.25179029 C3.02369863,5.34310577 2.9586979,5.4772724 2.91641231,5.65429018 C2.87412672,5.83130796 2.82562805,6.07322454 2.7709163,6.38003993 C2.75919235,6.44143773 2.72936346,6.4920721 2.68142962,6.53194306 C2.63349577,6.57181401 2.57844818,6.59174949 2.51628684,6.59174949 Z M5.0895099,3.1260145 C5.00145818,3.1260145 4.94570837,3.07561159 4.92226048,2.97480578 C4.86754873,2.71202783 4.81937064,2.51822838 4.7777262,2.3934074 C4.73608177,2.26858643 4.65073205,2.17922399 4.52167704,2.12532008 C4.39262204,2.07141617 4.16960754,2.01796074 3.85263355,1.96495378 C3.75163664,1.94660967 3.70113818,1.89444179 3.70113818,1.80845015 C3.70113818,1.7248311 3.7484614,1.67384951 3.84310784,1.6555054 C4.08436468,1.61106289 4.2695206,1.56964397 4.3985756,1.53124864 C4.52763061,1.49285332 4.62244497,1.4417994 4.6830187,1.37808689 C4.74359242,1.31437438 4.78853421,1.22505534 4.81784408,1.11012977 C4.84715395,0.995204201 4.88195941,0.840291943 4.92226048,0.645392995 C4.94570837,0.548464332 5.00145818,0.5 5.0895099,0.5 C5.17884393,0.5 5.23389152,0.547885653 5.25465268,0.643656959 C5.30136528,0.905219681 5.34584911,1.09750011 5.38810416,1.22049824 C5.43035922,1.34349638 5.51802931,1.43193293 5.65111442,1.48580791 C5.78419953,1.53968288 6.01054192,1.59624872 6.33014158,1.6555054 C6.42600927,1.67384951 6.47394311,1.7248311 6.47394311,1.80845015 C6.47394311,1.89681437 6.42661989,1.94898225 6.33197345,1.96495378 C6.09193786,2.00939629 5.90704145,2.05081521 5.77728423,2.08921054 C5.64752701,2.12760586 5.55236154,2.1780377 5.49178782,2.24050605 C5.43121409,2.30297441 5.38595172,2.39287213 5.3560007,2.51019921 C5.32604968,2.62752629 5.29226701,2.78552002 5.25465268,2.98418037 C5.23389152,3.07873646 5.17884393,3.1260145 5.0895099,3.1260145 Z M11.5000356,14.5 C11.4249291,14.5 11.3608901,14.4779668 11.3079186,14.4339004 C11.2549471,14.3898341 11.221256,14.3304761 11.2068453,14.2558266 C11.1101839,13.7331641 11.0054927,13.305998 10.8927718,12.9743284 C10.780051,12.6426587 10.6248155,12.3790562 10.4270655,12.1835207 C10.2293155,11.9879852 9.95841297,11.8365161 9.61435789,11.7291133 C9.2703028,11.6217106 8.81668682,11.5297296 8.25350996,11.4531704 C8.17596094,11.4420598 8.11294472,11.4116792 8.06446132,11.3620286 C8.01597792,11.3123779 7.99173622,11.2526583 7.99173622,11.1828697 C7.99173622,11.113081 8.01597792,11.0537086 8.06446132,11.0047524 C8.11294472,10.9557962 8.17596094,10.9245765 8.25350996,10.9110933 C8.81051954,10.8286316 9.26179989,10.7330773 9.607351,10.6244304 C9.95290211,10.5157835 10.226583,10.3645313 10.4283936,10.170674 C10.6302043,9.97681669 10.7883402,9.71463189 10.9028013,9.38411961 C11.0172624,9.05360734 11.1186104,8.62594939 11.2068453,8.10114578 C11.2197905,8.02996832 11.2517871,7.97170985 11.3028352,7.92637038 C11.3538832,7.88103092 11.4196167,7.85836118 11.5000356,7.85836118 C11.5737377,7.85836118 11.6357464,7.88103092 11.6860617,7.92637038 C11.7363769,7.97170985 11.7693505,8.02869522 11.7849825,8.0973265 C11.8828652,8.62114636 11.9875411,9.04948425 12.0990102,9.38234018 C12.2104793,9.7151961 12.3651499,9.98001389 12.563022,10.1767935 C12.7608941,10.3735732 13.0318425,10.5263009 13.375867,10.6349768 C13.7198916,10.7436526 14.1727901,10.8356914 14.7345625,10.9110933 C14.8160806,10.9208729 14.8806997,10.9511668 14.9284198,11.0019747 C14.9761399,11.0527827 15,11.113081 15,11.1828697 C15,11.2526583 14.9761399,11.3123779 14.9284198,11.3620286 C14.8806997,11.4116792 14.8160806,11.4420598 14.7345625,11.4531704 C14.1790184,11.5285723 13.7281503,11.6209438 13.381958,11.7302851 C13.0357657,11.8396265 12.7614132,11.9923976 12.5589003,12.1885986 C12.3563875,12.3847996 12.1985264,12.6484021 12.085317,12.9794063 C11.9721076,13.3104104 11.8719961,13.7346108 11.7849825,14.2520073 C11.7528637,14.4173358 11.6578814,14.5 11.5000356,14.5 Z M2.2035872,12.9677748 L0.39214588,13.6514257 C0.318871214,13.6795495 0.247855851,13.6774663 0.17909979,13.645176 C0.110343729,13.6128857 0.0592957121,13.5635389 0.0259557393,13.4971355 C-0.00738423352,13.4307322 -0.00860547794,13.3610448 0.022292006,13.2880734 L0.773540514,11.608806 L9.49011153,3.35230676 L10.9201582,4.70953952 L2.2035872,12.9677748 Z M11.6457606,4.03682566 L10.2018833,2.67403759 L11.01166,1.9176468 C11.2098069,1.73223818 11.4156171,1.63276333 11.6290906,1.61922226 C11.8425641,1.60568118 12.0405584,1.68597283 12.2230734,1.86009722 L12.5064631,2.13039799 C12.6916038,2.30452237 12.7792891,2.49215891 12.7695192,2.69330758 C12.7597492,2.89445626 12.6537452,3.08958668 12.4515071,3.27869884 L11.6457606,4.03682566 Z" id="Shape" fill="#86868B" fill-rule="nonzero"></path>
    </g>
</svg>