<?xml version="1.0" encoding="UTF-8"?>
<svg xmlns="http://www.w3.org/2000/svg" xmlns:xlink="http://www.w3.org/1999/xlink" width="14px" height="12px" viewBox="0 0 14 12" version="1.1" id="ipados">
    <title>􀥔</title>
    <g id="Design-Spec" stroke="none" stroke-width="1" fill="none" fill-rule="evenodd">
        <g id="Taxonomy-and-Icons-Filled---04/28/22" transform="translate(-1312.000000, -113.000000)" fill="#86868B" fill-rule="nonzero">
            <g id="􀥔" transform="translate(1312.091797, 113.384766)">
                <path d="M1.83984375,10.7871094 L11.9765625,10.7871094 C12.59375,10.7871094 13.0546875,10.6357422 13.359375,10.3330078 C13.6640625,10.0302734 13.8164062,9.57617188 13.8164062,8.97070312 L13.8164062,1.81640625 C13.8164062,1.2109375 13.6640625,0.756835938 13.359375,0.454101562 C13.0546875,0.151367188 12.59375,0 11.9765625,0 L1.83984375,0 C1.2265625,0 0.766601562,0.151367188 0.459960938,0.454101562 C0.153320312,0.756835938 0,1.2109375 0,1.81640625 L0,8.97070312 C0,9.57617188 0.153320312,10.0302734 0.459960938,10.3330078 C0.766601562,10.6357422 1.2265625,10.7871094 1.83984375,10.7871094 Z M1.8515625,9.84375 C1.55859375,9.84375 1.33398438,9.76660156 1.17773438,9.61230469 C1.02148438,9.45800781 0.943359375,9.22851562 0.943359375,8.92382812 L0.943359375,1.86328125 C0.943359375,1.55859375 1.02148438,1.32910156 1.17773438,1.17480469 C1.33398438,1.02050781 1.55859375,0.943359375 1.8515625,0.943359375 L11.9648438,0.943359375 C12.2539062,0.943359375 12.4775391,1.02050781 12.6357422,1.17480469 C12.7939453,1.32910156 12.8730469,1.55859375 12.8730469,1.86328125 L12.8730469,8.92382812 C12.8730469,9.22851562 12.7939453,9.45800781 12.6357422,9.61230469 C12.4775391,9.76660156 12.2539062,9.84375 11.9648438,9.84375 L1.8515625,9.84375 Z M4.64648438,9.39257812 L9.17578125,9.39257812 C9.25390625,9.39257812 9.31835938,9.36816406 9.36914062,9.31933594 C9.41992188,9.27050781 9.4453125,9.20507812 9.4453125,9.12304688 C9.4453125,9.04101562 9.41992188,8.97460938 9.36914062,8.92382812 C9.31835938,8.87304688 9.25390625,8.84765625 9.17578125,8.84765625 L4.64648438,8.84765625 C4.56445312,8.84765625 4.49804688,8.87304688 4.44726562,8.92382812 C4.39648438,8.97460938 4.37109375,9.04101562 4.37109375,9.12304688 C4.37109375,9.20507812 4.39648438,9.27050781 4.44726562,9.31933594 C4.49804688,9.36816406 4.56445312,9.39257812 4.64648438,9.39257812 Z" id="Shape"/>
            </g>
        </g>
    </g>
</svg>
