<?xml version="1.0" encoding="UTF-8"?>
<svg xmlns="http://www.w3.org/2000/svg" xmlns:xlink="http://www.w3.org/1999/xlink" width="14px" height="12px" viewBox="0 0 14 12" version="1.1" id="multitasking">
    <title>􀧉</title>
    <g id="Design-Spec" stroke="none" stroke-width="1" fill="none" fill-rule="evenodd">
        <g id="Taxonomy-and-Icons-Filled---04/28/22" transform="translate(-232.000000, -475.000000)" fill="#86868B" fill-rule="nonzero">
            <g id="􀧉" transform="translate(232.091797, 475.378906)">
                <path d="M6.43945312,10.7871094 L6.43945312,0 L7.3828125,0 L7.3828125,10.7871094 L6.43945312,10.7871094 Z M1.83984375,10.7871094 L11.9765625,10.7871094 C12.59375,10.7871094 13.0546875,10.6357422 13.359375,10.3330078 C13.6640625,10.0302734 13.8164062,9.578125 13.8164062,8.9765625 L13.8164062,1.81640625 C13.8164062,1.21484375 13.6640625,0.76171875 13.359375,0.45703125 C13.0546875,0.15234375 12.59375,0 11.9765625,0 L1.83984375,0 C1.2265625,0 0.766601562,0.151367188 0.459960938,0.454101562 C0.153320312,0.756835938 0,1.2109375 0,1.81640625 L0,8.9765625 C0,9.578125 0.153320312,10.0302734 0.459960938,10.3330078 C0.766601562,10.6357422 1.2265625,10.7871094 1.83984375,10.7871094 Z" id="Shape"/>
            </g>
        </g>
    </g>
</svg>
