<?xml version="1.0" encoding="UTF-8"?>
<svg width="12px" height="11px" viewBox="0 0 12 11" version="1.1" xmlns="http://www.w3.org/2000/svg" xmlns:xlink="http://www.w3.org/1999/xlink">
    <title>Shape</title>
    <g id="Design-Spec" stroke="none" stroke-width="1" fill="none" fill-rule="evenodd">
        <g id="Taxonomy-and-Icons-Filled---04/28/22" transform="translate(-45.000000, -425.000000)" fill="#86868B" fill-rule="nonzero">
            <path d="M46,434.176119 L46.5040958,435 L50.9968494,432.862687 L55.489603,435 L56,434.176119 L51.5072464,432.038806 L51.5072464,427 L50.4927536,427 L50.4927536,432.038806 L46,434.176119 Z M45.0566416,435.219792 C44.987413,435.376599 44.9816439,435.503187 45.0393345,435.599558 C45.097025,435.695928 45.2099336,435.753914 45.3780603,435.773515 L47.4252501,435.994024 C47.5768938,436.010358 47.7029888,435.993207 47.8035352,435.942572 C47.9040816,435.891937 47.966717,435.815983 47.9914415,435.714713 C48.016166,435.613442 47.9873208,435.494203 47.9049057,435.356998 L46.6835147,433.259711 C46.6043962,433.125772 46.5145638,433.044102 46.4140175,433.014701 C46.3134711,432.985299 46.2162214,433 46.1222682,433.058802 C46.028315,433.117605 45.951669,433.215609 45.8923302,433.352815 L45.0566416,435.219792 Z M56.9433584,435.219792 L56.1126147,433.352815 C56.0499793,433.215609 55.971685,433.117605 55.8777318,433.058802 C55.7837786,433 55.6865289,432.985299 55.5859825,433.014701 C55.4854362,433.044102 55.3972521,433.125772 55.3214302,433.259711 L54.0950943,435.356998 C54.0126792,435.494203 53.983834,435.613442 54.0085585,435.714713 C54.033283,435.815983 54.0967426,435.891937 54.1989372,435.942572 C54.3011319,435.993207 54.4264028,436.010358 54.5747499,435.994024 L56.6219397,435.773515 C56.7900664,435.753914 56.902975,435.695928 56.9606655,435.599558 C57.0183561,435.503187 57.012587,435.376599 56.9433584,435.219792 Z M50.6134632,425.241736 L49.1738679,427.146929 C49.0641844,427.287212 49.0064047,427.422755 49.0005288,427.553559 C48.9946529,427.684364 49.0377429,427.791471 49.1297986,427.874883 C49.2218544,427.958294 49.3618966,428 49.5499254,428 L52.4467438,428 C52.6386898,428 52.7806907,427.958294 52.8727465,427.874883 C52.9648022,427.791471 53.0069128,427.685311 52.9990783,427.556403 C52.9912438,427.427494 52.9324848,427.291003 52.8228013,427.146929 L51.3773301,425.241736 C51.2558948,425.082496 51.129563,425.001928 50.9983346,425.000033 C50.8671062,424.998137 50.7388157,425.078705 50.6134632,425.241736 Z" id="Shape"></path>
        </g>
    </g>
</svg>